<svg width="17" height="16" viewBox="0 0 17 16" fill="none" xmlns="http://www.w3.org/2000/svg">
<path d="M4.79947 12.1486C3.96818 12.0669 3.34545 11.8172 2.92781 11.3995C2.17871 10.6505 2.17871 9.44476 2.17871 7.03348V6.71378C2.17871 4.30248 2.17871 3.09683 2.92781 2.34773C3.67691 1.59863 4.88255 1.59863 7.29386 1.59863H9.85144C12.2627 1.59863 13.4684 1.59863 14.2175 2.34773C14.9666 3.09683 14.9666 4.30248 14.9666 6.71378V7.03348C14.9666 9.44476 14.9666 10.6505 14.2175 11.3995C13.4684 12.1486 12.2627 12.1486 9.85144 12.1486C9.49306 12.1566 9.20763 12.1839 8.92726 12.2477C8.16101 12.4241 7.45147 12.8162 6.75029 13.1582C5.75119 13.6453 5.25164 13.8889 4.93814 13.6609C4.33839 13.2142 4.92461 11.8302 5.05598 11.1895" stroke="#1A2943" stroke-width="0.959091" stroke-linecap="round"/>
</svg>
