<svg width="23" height="18" viewBox="0 0 23 18" fill="none" xmlns="http://www.w3.org/2000/svg">
<path fill-rule="evenodd" clip-rule="evenodd" d="M9.10499 0.60985C7.55278 1.45845 6.5 3.10628 6.5 5C6.5 6.0141 6.8019 6.95769 7.32074 7.7458C5.33291 7.6522 3.75 6.01097 3.75 4C3.75 1.92893 5.42893 0.25 7.5 0.25C8.0743 0.25 8.61844 0.3791 9.10499 0.60985ZM8.02478 9.25C5.41038 10.0115 3.5 12.4255 3.5 15.2857C3.5 15.8057 3.60685 16.3007 3.79978 16.75H3.21429C1.8533 16.75 0.75 15.6467 0.75 14.2857C0.75 11.5046 3.00457 9.25 5.78571 9.25H8.02478ZM11.5 1.25C9.42893 1.25 7.75 2.92893 7.75 5C7.75 7.0711 9.42893 8.75 11.5 8.75C13.5711 8.75 15.25 7.0711 15.25 5C15.25 2.92893 13.5711 1.25 11.5 1.25ZM9.7857 10.25C7.00457 10.25 4.75 12.5046 4.75 15.2857C4.75 16.6467 5.8533 17.75 7.21429 17.75H15.7857C17.1467 17.75 18.25 16.6467 18.25 15.2857C18.25 12.5046 15.9954 10.25 13.2143 10.25H9.7857ZM16.5 5C16.5 6.0141 16.1981 6.95769 15.6793 7.7458C17.6671 7.6522 19.25 6.01097 19.25 4C19.25 1.92893 17.5711 0.25 15.5 0.25C14.9257 0.25 14.3816 0.3791 13.895 0.60985C15.4472 1.45845 16.5 3.10628 16.5 5ZM19.5 15.2857C19.5 15.8057 19.3932 16.3007 19.2002 16.75H19.7857C21.1467 16.75 22.25 15.6467 22.25 14.2857C22.25 11.5046 19.9954 9.25 17.2143 9.25H14.9752C17.5896 10.0115 19.5 12.4255 19.5 15.2857Z" fill="#004852"/>
</svg>
